<svg width="840" height="400" viewBox="0 0 840 400" xmlns="http://www.w3.org/2000/svg">
  <defs>
    <style>
      .mono { font-family: 'Fira Code', Consolas, monospace; }
      .prompt { fill: #6ee7ff; font-weight: bold; }
      .key { fill: #4a9eff; font-weight: 600; }
      .val { fill: #cbd9ea; }
      .dim { fill: #4a6280; }
    </style>
    <linearGradient id="glyph" x1="0%" y1="0%" x2="100%" y2="100%">
      <stop offset="0%" stop-color="#20BEFF"/>
      <stop offset="100%" stop-color="#3B82F6"/>
    </linearGradient>
  </defs>

  <rect width="840" height="400" rx="10" fill="#0a0e17"/>
  <rect x="1" y="1" width="838" height="398" rx="9" fill="none" stroke="#1e3a5f" stroke-width="1.4"/>

  <!-- title bar -->
  <path d="M10,1 h820 a9,9 0 0 1 9,9 v24 h-838 v-24 a9,9 0 0 1 9,-9 z" fill="#0e1a2a"/>
  <circle cx="26" cy="18" r="6" fill="#ff5f57"/>
  <circle cx="48" cy="18" r="6" fill="#febc2e"/>
  <circle cx="70" cy="18" r="6" fill="#28c840"/>
  <text x="420" y="23" text-anchor="middle" class="mono dim" font-size="13">huzaifa@void: ~</text>
  <line x1="0" y1="34" x2="840" y2="34" stroke="#1e3a5f" stroke-width="1"/>

  <!-- ASCII glyph, left column -->
  <g class="mono" font-size="16" fill="url(#glyph)" font-weight="bold" letter-spacing="2">
    <text x="46" y="88">   /\</text>
    <text x="46" y="112">  /  \</text>
    <text x="46" y="136"> / /\ \</text>
    <text x="46" y="160">/ /  \ \</text>
    <text x="46" y="184">▔▔▔▔▔▔▔▔</text>
    <text x="46" y="208">\ \  / /</text>
    <text x="46" y="232"> \ \/ /</text>
    <text x="46" y="256">  \  /</text>
    <text x="46" y="280">   \/</text>
  </g>
  <text x="46" y="310" class="mono dim" font-size="12.5">[ compile · run · learn ]</text>

  <line x1="340" y1="58" x2="340" y2="330" stroke="#1e3a5f" stroke-width="1"/>

  <!-- info block, right column -->
  <g class="mono" font-size="15.5">
    <text x="368" y="82"><tspan class="prompt">huzaifa</tspan><tspan class="val">@</tspan><tspan class="prompt">void</tspan></text>
    <line x1="368" y1="94" x2="760" y2="94" stroke="#1e3a5f" stroke-width="1"/>

    <text x="368" y="124"><tspan class="key">OS      </tspan><tspan class="val">Ubuntu (WSL2)</tspan></text>
    <text x="368" y="152"><tspan class="key">Host    </tspan><tspan class="val">HP Omen 16 · RTX 4060</tspan></text>
    <text x="368" y="180"><tspan class="key">Focus   </tspan><tspan class="val">SQL -&gt; Feature Eng. -&gt; ML</tspan></text>
    <text x="368" y="208"><tspan class="key">Stack   </tspan><tspan class="val">Python · Pandas · NumPy</tspan></text>
    <text x="368" y="236"><tspan class="key">Goal    </tspan><tspan class="val">Machine Learning Engineer</tspan></text>
    <text x="368" y="264"><tspan class="key">Motto   </tspan><tspan class="val">Understand -&gt; Implement</tspan></text>

    <g>
      <rect x="368" y="284" width="17" height="17" rx="2" fill="#3B82F6"/>
      <rect x="389" y="284" width="17" height="17" rx="2" fill="#20BEFF"/>
      <rect x="410" y="284" width="17" height="17" rx="2" fill="#6ee7ff"/>
      <rect x="431" y="284" width="17" height="17" rx="2" fill="#8fa8c4"/>
      <rect x="452" y="284" width="17" height="17" rx="2" fill="#cbd9ea"/>
      <rect x="473" y="284" width="17" height="17" rx="2" fill="#1e3a5f"/>
      <rect x="494" y="284" width="17" height="17" rx="2" fill="#0e1a2a"/>
    </g>
  </g>

  <line x1="0" y1="340" x2="840" y2="340" stroke="#1e3a5f" stroke-width="1"/>
  <text x="46" y="366" class="mono" font-size="14.5"><tspan class="prompt">$</tspan><tspan class="val"> whoami</tspan></text>
  <text x="46" y="389" class="mono val" font-size="14.5">Muhammad Huzaifa Khan — Understanding before Implementation.</text>
</svg>
